<?xml version="1.0" encoding="utf-8"?>
<!-- Generator: Adobe Illustrator 27.0.0, SVG Export Plug-In . SVG Version: 6.00 Build 0)  -->
<svg version="1.1" xmlns="http://www.w3.org/2000/svg" xmlns:xlink="http://www.w3.org/1999/xlink" x="0px" y="0px"
	 viewBox="0 0 612 792" style="enable-background:new 0 0 612 792;" xml:space="preserve">
<style type="text/css">
	.st0{fill:#FFFFFF;}
	.st1{fill:none;stroke:#000000;stroke-miterlimit:10;}
</style>
<g id="BG">
	<polygon class="st0" points="440.7,115.38 328.45,3.13 283.55,3.13 171.3,115.38 171.3,339.88 227.43,396 171.3,452.12 
		171.3,676.62 283.55,788.87 328.45,788.87 440.7,676.62 440.7,452.12 384.57,396 440.7,339.88 	"/>
</g>
<g id="_x34_D">
	<line class="st1" x1="216.2" y1="115.38" x2="216.2" y2="339.88"/>
	<line class="st1" x1="216.2" y1="452.12" x2="216.2" y2="676.62"/>
	<line class="st1" x1="216.2" y1="676.62" x2="328.45" y2="788.87"/>
	<line class="st1" x1="216.2" y1="115.38" x2="328.45" y2="3.13"/>
	<line class="st1" x1="328.45" y1="115.38" x2="328.45" y2="339.88"/>
	<line class="st1" x1="328.45" y1="452.12" x2="328.45" y2="676.62"/>
	<line class="st1" x1="272.33" y1="396" x2="216.2" y2="452.12"/>
	<line class="st1" x1="216.2" y1="339.88" x2="328.45" y2="452.12"/>
	<line class="st1" x1="440.7" y1="676.62" x2="440.7" y2="452.12"/>
	<line class="st1" x1="440.7" y1="339.88" x2="440.7" y2="115.38"/>
	<line class="st1" x1="440.7" y1="115.38" x2="328.45" y2="3.13"/>
	<line class="st1" x1="440.7" y1="676.62" x2="328.45" y2="788.87"/>
	<line class="st1" x1="328.45" y1="676.62" x2="328.45" y2="452.12"/>
	<line class="st1" x1="328.45" y1="339.88" x2="328.45" y2="115.38"/>
	<line class="st1" x1="384.57" y1="396" x2="440.7" y2="339.88"/>
	<line class="st1" x1="440.7" y1="452.12" x2="328.45" y2="339.88"/>
	<line class="st1" x1="171.3" y1="115.38" x2="171.3" y2="339.88"/>
	<line class="st1" x1="171.3" y1="452.12" x2="171.3" y2="676.62"/>
	<line class="st1" x1="171.3" y1="676.62" x2="283.55" y2="788.87"/>
	<line class="st1" x1="171.3" y1="115.38" x2="283.55" y2="3.13"/>
	<line class="st1" x1="283.55" y1="115.38" x2="283.55" y2="339.88"/>
	<line class="st1" x1="283.55" y1="452.12" x2="283.55" y2="676.62"/>
	<line class="st1" x1="227.43" y1="396" x2="171.3" y2="452.12"/>
	<line class="st1" x1="171.3" y1="339.88" x2="283.55" y2="452.12"/>
	<line class="st1" x1="395.8" y1="676.62" x2="395.8" y2="452.12"/>
	<line class="st1" x1="395.8" y1="339.88" x2="395.8" y2="115.38"/>
	<line class="st1" x1="395.8" y1="115.38" x2="283.55" y2="3.13"/>
	<line class="st1" x1="395.8" y1="676.62" x2="283.55" y2="788.87"/>
	<line class="st1" x1="283.55" y1="676.62" x2="283.55" y2="452.12"/>
	<line class="st1" x1="283.55" y1="339.88" x2="283.55" y2="115.38"/>
	<line class="st1" x1="339.67" y1="396" x2="395.8" y2="339.88"/>
	<line class="st1" x1="395.8" y1="452.12" x2="283.55" y2="339.88"/>
	<line class="st1" x1="328.45" y1="3.13" x2="283.55" y2="3.13"/>
	<line class="st1" x1="395.8" y1="115.38" x2="440.7" y2="115.38"/>
	<line class="st1" x1="395.8" y1="339.88" x2="440.7" y2="339.88"/>
	<line class="st1" x1="384.57" y1="396" x2="339.67" y2="396"/>
	<line class="st1" x1="328.45" y1="339.88" x2="283.55" y2="339.88"/>
	<line class="st1" x1="283.55" y1="115.38" x2="328.45" y2="115.38"/>
	<line class="st1" x1="216.2" y1="339.88" x2="171.3" y2="339.88"/>
	<line class="st1" x1="216.2" y1="115.38" x2="171.3" y2="115.38"/>
	<line class="st1" x1="272.33" y1="396" x2="227.43" y2="396"/>
	<line class="st1" x1="216.2" y1="452.12" x2="171.3" y2="452.12"/>
	<line class="st1" x1="283.55" y1="452.12" x2="328.45" y2="452.12"/>
	<line class="st1" x1="283.55" y1="676.62" x2="328.45" y2="676.62"/>
	<line class="st1" x1="395.8" y1="676.62" x2="440.7" y2="676.62"/>
	<line class="st1" x1="440.7" y1="452.12" x2="395.8" y2="452.12"/>
	<line class="st1" x1="283.55" y1="788.87" x2="328.45" y2="788.87"/>
	<line class="st1" x1="171.3" y1="676.62" x2="216.2" y2="676.62"/>
</g>
<g id="_x33_D-4D">
	<line class="st1" x1="320.97" y1="657.91" x2="328.45" y2="788.87"/>
	<line class="st1" x1="291.03" y1="657.91" x2="283.55" y2="788.87"/>
	<line class="st1" x1="395.8" y1="583.08" x2="440.7" y2="676.62"/>
	<line class="st1" x1="365.87" y1="583.08" x2="395.8" y2="676.62"/>
	<line class="st1" x1="395.8" y1="433.42" x2="440.7" y2="452.12"/>
	<line class="st1" x1="365.87" y1="433.42" x2="395.8" y2="452.12"/>
	<line class="st1" x1="384.57" y1="396" x2="358.38" y2="396"/>
	<line class="st1" x1="328.45" y1="396" x2="339.67" y2="396"/>
	<line class="st1" x1="440.7" y1="339.88" x2="395.8" y2="358.58"/>
	<line class="st1" x1="365.87" y1="358.58" x2="395.8" y2="339.88"/>
	<line class="st1" x1="395.8" y1="208.92" x2="440.7" y2="115.38"/>
	<line class="st1" x1="395.8" y1="115.38" x2="365.87" y2="208.92"/>
	<line class="st1" x1="328.45" y1="3.13" x2="320.97" y2="134.09"/>
	<line class="st1" x1="283.55" y1="3.13" x2="291.03" y2="134.09"/>
	<line class="st1" x1="216.2" y1="208.92" x2="171.3" y2="115.38"/>
	<line class="st1" x1="216.2" y1="115.38" x2="246.13" y2="208.92"/>
	<line class="st1" x1="171.3" y1="339.88" x2="216.2" y2="358.58"/>
	<line class="st1" x1="216.2" y1="339.88" x2="246.13" y2="358.58"/>
	<line class="st1" x1="216.2" y1="433.42" x2="171.3" y2="452.12"/>
	<line class="st1" x1="246.13" y1="433.42" x2="216.2" y2="452.12"/>
	<line class="st1" x1="283.55" y1="396" x2="272.33" y2="396"/>
	<line class="st1" x1="253.62" y1="396" x2="227.43" y2="396"/>
	<line class="st1" x1="216.2" y1="583.08" x2="171.3" y2="676.62"/>
	<line class="st1" x1="246.13" y1="583.08" x2="216.2" y2="676.62"/>
	<line class="st1" x1="291.03" y1="358.58" x2="283.55" y2="339.88"/>
	<line class="st1" x1="320.97" y1="358.58" x2="328.45" y2="339.88"/>
	<line class="st1" x1="291.03" y1="208.92" x2="283.55" y2="115.38"/>
	<line class="st1" x1="320.97" y1="208.92" x2="328.45" y2="115.38"/>
	<line class="st1" x1="291.03" y1="433.42" x2="283.55" y2="452.12"/>
	<line class="st1" x1="320.97" y1="433.42" x2="328.45" y2="452.12"/>
	<line class="st1" x1="291.03" y1="583.08" x2="283.55" y2="676.62"/>
	<line class="st1" x1="320.97" y1="583.08" x2="328.45" y2="676.62"/>
</g>
<g id="_x33_D">
</g>
<g id="_x32_D-3D">
</g>
<g id="_x32_D">
	<line class="st1" x1="216.2" y1="208.92" x2="216.2" y2="358.58"/>
	<line class="st1" x1="216.2" y1="433.42" x2="216.2" y2="583.08"/>
	<line class="st1" x1="216.2" y1="583.08" x2="291.03" y2="657.91"/>
	<line class="st1" x1="216.2" y1="208.92" x2="291.03" y2="134.09"/>
	<line class="st1" x1="291.03" y1="208.92" x2="291.03" y2="358.58"/>
	<line class="st1" x1="291.03" y1="433.42" x2="291.03" y2="583.08"/>
	<line class="st1" x1="253.62" y1="396" x2="216.2" y2="433.42"/>
	<line class="st1" x1="216.2" y1="358.58" x2="291.03" y2="433.42"/>
	<line class="st1" x1="365.87" y1="583.08" x2="365.87" y2="433.42"/>
	<line class="st1" x1="365.87" y1="358.58" x2="365.87" y2="208.92"/>
	<line class="st1" x1="365.87" y1="208.92" x2="291.03" y2="134.09"/>
	<line class="st1" x1="365.87" y1="583.08" x2="291.03" y2="657.91"/>
	<line class="st1" x1="291.03" y1="583.08" x2="291.03" y2="433.42"/>
	<line class="st1" x1="291.03" y1="358.58" x2="291.03" y2="208.92"/>
	<line class="st1" x1="328.45" y1="396" x2="365.87" y2="358.58"/>
	<line class="st1" x1="365.87" y1="433.42" x2="291.03" y2="358.58"/>
	<line class="st1" x1="320.97" y1="134.09" x2="291.03" y2="134.09"/>
	<line class="st1" x1="365.87" y1="208.92" x2="395.8" y2="208.92"/>
	<line class="st1" x1="365.87" y1="358.58" x2="395.8" y2="358.58"/>
	<line class="st1" x1="358.38" y1="396" x2="328.45" y2="396"/>
	<line class="st1" x1="320.97" y1="358.58" x2="291.03" y2="358.58"/>
	<line class="st1" x1="291.03" y1="208.92" x2="320.97" y2="208.92"/>
	<line class="st1" x1="246.13" y1="358.58" x2="216.2" y2="358.58"/>
	<line class="st1" x1="246.13" y1="208.92" x2="216.2" y2="208.92"/>
	<line class="st1" x1="283.55" y1="396" x2="253.62" y2="396"/>
	<line class="st1" x1="246.13" y1="433.42" x2="216.2" y2="433.42"/>
	<line class="st1" x1="291.03" y1="433.42" x2="320.97" y2="433.42"/>
	<line class="st1" x1="291.03" y1="583.08" x2="320.97" y2="583.08"/>
	<line class="st1" x1="365.87" y1="583.08" x2="395.8" y2="583.08"/>
	<line class="st1" x1="395.8" y1="433.42" x2="365.87" y2="433.42"/>
	<line class="st1" x1="291.03" y1="657.91" x2="320.97" y2="657.91"/>
	<line class="st1" x1="216.2" y1="583.08" x2="246.13" y2="583.08"/>
	<line class="st1" x1="246.13" y1="208.92" x2="246.13" y2="358.58"/>
	<line class="st1" x1="246.13" y1="433.42" x2="246.13" y2="583.08"/>
	<line class="st1" x1="246.13" y1="583.08" x2="320.97" y2="657.91"/>
	<line class="st1" x1="246.13" y1="208.92" x2="320.97" y2="134.09"/>
	<line class="st1" x1="320.97" y1="208.92" x2="320.97" y2="358.58"/>
	<line class="st1" x1="320.97" y1="433.42" x2="320.97" y2="583.08"/>
	<line class="st1" x1="283.55" y1="396" x2="246.13" y2="433.42"/>
	<line class="st1" x1="246.13" y1="358.58" x2="320.97" y2="433.42"/>
	<line class="st1" x1="395.8" y1="583.08" x2="395.8" y2="433.42"/>
	<line class="st1" x1="395.8" y1="358.58" x2="395.8" y2="208.92"/>
	<line class="st1" x1="395.8" y1="208.92" x2="320.97" y2="134.09"/>
	<line class="st1" x1="395.8" y1="583.08" x2="320.97" y2="657.91"/>
	<line class="st1" x1="320.97" y1="583.08" x2="320.97" y2="433.42"/>
	<line class="st1" x1="320.97" y1="358.58" x2="320.97" y2="208.92"/>
	<line class="st1" x1="358.38" y1="396" x2="395.8" y2="358.58"/>
	<line class="st1" x1="395.8" y1="433.42" x2="320.97" y2="358.58"/>
</g>
</svg>
